# xmcd CD database file
#
# Track frame offsets:
#	150
#	15002
#	30965
#	47230
#	57964
#	67910
#	83740
#	104737
#	123207
#	138617
#	150725
#	172234
#	186025
#	197145
#
# Disc length: 2843 seconds
#
# Revision: 3
# Processed by: cddbd v1.4PL0 Copyright (c) Steve Scherf et al.
# Submitted via: CDex 1.50Beta7
#
DISCID=b60b190e
DTITLE=Various Artist - Life's Highway
DYEAR=1998
DGENRE=Country
TTITLE0=STEVE WARINER - life's Highway
TTITLE1=PAM TILLIS - Let That Pony Run
TTITLE2=KEITH WHITLEY - I'm No Stranger To The Rain
TTITLE3=DELBERT McCLINTON - Victim Of Life's Circumstances
TTITLE4=MERLE HAGGARD - Mama Tried
TTITLE5=WAYLON JENNINGS - Will The Wolf Survive
TTITLE6=LEE ROY PARNELL - On The Road
TTITLE7=THE BELLAMY BROS. - Old Hippie
TTITLE8=THE MAVERICKS - Mr. Jones
TTITLE9=CHARLIE RICH - Rollin' With The Flow
TTITLE10=THE DESERT ROSE BAND - Homeless
TTITLE11=AARON TIPPIN - You've Got To Stand For Something
TTITLE12=HANK WILLIAMAS, JR. - Mind Your Own Business
TTITLE13=WILLIE NELSON - Over The Rainbow
EXTD=Hip-O Records HIPD 40081\n(P) (C) 1998 Universal Music Special Markets Inc. YEAR: 1998
EXTT0=
EXTT1=
EXTT2=
EXTT3=
EXTT4=
EXTT5=
EXTT6=
EXTT7=
EXTT8=
EXTT9=
EXTT10=
EXTT11=
EXTT12=
EXTT13=
PLAYORDER=
